<?xml version="1.0" encoding="utf-8"?>
<!-- Generator: Adobe Illustrator 15.0.2, SVG Export Plug-In . SVG Version: 6.00 Build 0)  -->
<!DOCTYPE svg PUBLIC "-//W3C//DTD SVG 1.1//EN" "http://www.w3.org/Graphics/SVG/1.1/DTD/svg11.dtd">
<svg version="1.1" id="Layer_1" xmlns="http://www.w3.org/2000/svg" xmlns:xlink="http://www.w3.org/1999/xlink" x="0px" y="0px"
	 width="400px" height="110px" viewBox="0 0 400 110" enable-background="new 0 0 400 110" xml:space="preserve">
<g>
	<path fill="none" stroke="#C9D6E4" d="M30.52,96.469c-2.325-3.133-4.75-5.761-7.984-8.994c-2.931,5.558-6.569,10.207-10.915,14.147
		L3.335,93.74c8.084-6.974,11.622-14.148,13.542-22.233l10.308,2.324l-1.314,5.255c4.75,3.133,8.287,5.458,10.813,7.58L30.52,96.469
		z M67.811,75.751V31.083l-6.973,7.68c-2.729-2.729-5.255-5.255-8.893-8.489v7.175H18.292v-4.851
		c-4.042,2.931-5.255,4.245-8.489,6.165L3.436,28.658c9.297-5.356,18.898-12.026,25.77-19.807h11.217
		c11.42,7.882,17.584,12.026,27.387,20.211V17.339h9.702v58.412H67.811z M8.388,70.193V42.705H32.44v27.488H8.388z M22.94,51.497
		h-5.053v9.904h5.053V51.497z M23.143,28.86h27.286c-5.356-4.547-9.904-7.781-14.754-11.318
		C32.137,21.584,28.296,24.717,23.143,28.86z M61.747,100.612c-3.234-4.548-5.76-7.984-9.803-12.128
		c-2.526,4.952-5.558,9.298-9.095,12.835l-8.388-7.883c6.973-6.973,10.106-13.542,12.127-21.728l10.105,1.718
		c-0.404,2.324-0.909,4.649-1.617,6.974c5.659,3.941,10.409,7.983,13.542,11.116L61.747,100.612z M37.089,70.193V42.705h24.86
		v27.488H37.089z M52.551,51.497h-5.962v9.904h5.962V51.497z M72.156,99.702l-2.325-12.531c6.468,0.708,9.904,0.809,10.611,0.809
		c1.92,0,2.931-1.111,2.931-3.335V8.851h10.51v80.948c0,6.568-2.931,9.903-8.691,9.903H72.156z"/>
	<path fill="none" stroke="#C9D6E4" d="M132.28,72.518V84.24c5.356-1.617,10.005-3.133,14.755-4.851v10.409
		c-10.207,3.941-21.324,7.276-33.754,10.207l-2.931-11.319c3.335-0.505,7.681-1.111,11.42-1.818V72.518h-15.26V34.823h9.803V63.22
		h5.458V29.365h-17.18v-10.51h17.18V8.547h10.51v10.308h15.563v10.51H132.28V63.22h5.862V34.823h9.702v37.695H132.28z
		 M178.363,21.382l-1.92,6.67h18.494v53.965h-41.333V28.052h10.712l1.92-6.67h-16.574V11.68h47.7v9.702H178.363z M152.391,97.58
		c3.638-4.446,6.973-9.803,9.5-14.553l9.297,2.324c-2.324,4.548-5.356,10.915-9.095,16.271L152.391,97.58z M183.618,36.844h-18.595
		v6.266h18.595V36.844z M183.618,51.295h-18.595v6.266h18.595V51.295z M183.618,65.848h-18.595v7.276h18.595V65.848z
		 M186.65,101.824c-2.729-5.355-5.862-10.712-9.601-16.068l9.399-3.335c3.638,4.852,7.074,10.511,10.207,15.463L186.65,101.824z"/>
	<path fill="none" stroke="#C9D6E4" d="M287.703,100.511c-2.931,0-5.962-2.224-9.196-6.67c-1.111-1.516-2.021-2.931-3.133-5.053
		c-4.851,3.941-7.983,7.074-13.238,10.207l-5.559-9.298h-17.079v11.925h-12.329V89.697h-20.414v-9.095h20.414v-5.256h-17.988V39.875
		h49.721v35.471h-19.403v5.256h21.021v5.76c4.548-2.729,7.781-5.053,10.914-7.983c-2.425-10.308-3.537-17.281-4.346-32.339
		l-5.659,0.505l-1.111-10.106l6.367-0.505c-0.404-8.388-0.506-17.887-0.506-27.286h11.116c0,9.297,0,18.494,0.304,26.275
		l20.01-1.819l0.707,9.904l-20.414,1.92c0.506,8.792,0.91,16.271,2.021,22.839c3.537-6.568,6.266-13.542,8.186-20.717l9.803,3.941
		c-3.84,12.025-8.59,21.728-14.249,29.307c1.213,3.739,2.426,5.963,4.042,5.963c1.112,0,1.92-1.617,2.628-4.952l0.303-1.617
		c0.304-1.111,0.404-2.729,0.91-5.053l9.095,5.457c-2.021,8.894-4.346,14.452-7.074,17.383
		C291.645,99.399,290.027,100.511,287.703,100.511z M208.372,35.024V11.579h23.345v23.445H208.372z M222.823,19.259h-5.457v7.984
		h5.457V19.259z M228.887,48.566h-8.792v5.356h8.792V48.566z M228.887,61.401h-8.792v5.255h8.792V61.401z M235.961,35.024V11.579
		h23.749v23.445H235.961z M247.886,48.566h-8.792v5.356h8.792V48.566z M247.886,61.401h-8.792v5.255h8.792V61.401z M250.716,19.259
		h-5.861v7.984h5.861V19.259z M286.087,30.578c-1.517-6.063-3.437-11.622-5.458-16.877l8.792-2.931
		c2.325,4.851,4.447,10.813,6.469,16.574L286.087,30.578z"/>
	<path fill="none" stroke="#C9D6E4" d="M348.231,98.187c-0.707-3.133-1.111-5.861-1.92-9.096
		c-12.835,1.921-24.962,3.234-37.392,4.346l-2.123-12.531c2.729,0,5.559,0,8.691-0.101c5.963-6.872,11.622-15.26,16.473-24.861
		c-7.781,0.505-14.653,1.415-22.334,1.819l-1.92-11.419c1.718,0,3.537,0.101,5.457,0c5.154-11.622,8.994-20.919,13.845-36.786
		l12.229,3.537c-5.659,14.654-8.388,21.223-14.855,33.147c4.548,0,8.59-0.101,12.531-0.202c2.122-4.75,4.042-9.601,5.962-14.451
		l11.622,5.457c-8.287,16.978-16.371,32.439-25.567,43.253c5.558-0.303,9.903-0.505,15.058-0.909
		c-1.112-3.941-1.921-6.872-3.032-9.803l10.309-3.133c3.436,9.903,5.457,17.079,8.69,28.397L348.231,98.187z M395.123,50.992
		c-0.404,22.536-2.83,35.774-6.367,40.727c-2.931,4.144-8.69,6.366-16.371,6.366h-6.266l-3.335-14.047
		c5.255,0.708,8.488,0.708,9.601,0.708c3.638,0,6.366-1.415,7.579-4.548c1.617-4.043,2.324-14.452,2.628-31.025l0.202-18.19h-31.43
		V19.664h43.759V50.992z"/>
</g>
</svg>
