<?xml version="1.0" encoding="utf-8"?>
<!-- Generator: Adobe Illustrator 15.0.2, SVG Export Plug-In . SVG Version: 6.00 Build 0)  -->
<!DOCTYPE svg PUBLIC "-//W3C//DTD SVG 1.1//EN" "http://www.w3.org/Graphics/SVG/1.1/DTD/svg11.dtd">
<svg version="1.1" xmlns="http://www.w3.org/2000/svg" xmlns:xlink="http://www.w3.org/1999/xlink" x="0px" y="0px" width="379px"
	 height="397px" viewBox="0 0 379 397" enable-background="new 0 0 379 397" xml:space="preserve">
<g id="Shape_1_1_" enable-background="new    ">
	<path fill-rule="evenodd" clip-rule="evenodd" fill="#FFFFFF" d="M9,398c0,0,7-78,14-83s25-12,25-12s-15-14-10-27s19-15,19-15
		s-3-13,5-18s24-13,24-13s-32-24-16-39s37-29,37-29s5.667,6.333,9,8s4,1,4,1s0,4.667,1,10s2,8,2,8s-2,61.333-3,68
		s-6.333,13.333-6,17s13.667,17,17,23s15,26,15,26s18.667-17,23-22s11-19.667,15-23s19-29,19-29s12.334-18.667,14-21s-1-4-1-4l6-1
		c0,0-0.334,9,5,16s18.334,13.667,55,25s46.328,16.372,54,23c22.499,19.438,26.213,59.727,33,87c4.455,17.904,8,24,8,24H9z"/>
	<path fill-rule="evenodd" clip-rule="evenodd" fill="#FFFFFF" d="M95,124c0,0-6.5-38.5,7-59s29-44,73-38s44.878,14.465,51,22
		c6.5,8,9,10,12,14s13,31.5,13,41s-0.5,12,1,19c0.586,2.735,2.317,6.193,3,10c1.064,5.934,1,14,1,14s-0.75-6-3-13s-2.5-13-3-23
		s-9.387-40.965-30-51c-25.754-12.538-54.75,3.5-61,10s-7.5,10.5-7,19s-4.25,17-7,20s-7.5,11.25-8,20s0.75,11.5,2,20
		s-1.75,14.75-2,20s2.5,12.25,0,13s-4.5-6.5-7-14c-2.14-6.421-5-9.25-7-14s-2.5-12-1-15s-2.5-11.75-5-16s-8.5-9-14-7S95,124,95,124z
		"/>
</g>
<g id="Shape_3_1_" enable-background="new    ">
	<path fill-rule="evenodd" clip-rule="evenodd" fill="#FFFFFF" d="M194,119c7.262-0.285,7,6,7,6s-7.25,0.75-13,1s-20,2-20,2
		S181.25,119.5,194,119z"/>
	<path fill-rule="evenodd" clip-rule="evenodd" fill="#FFFFFF" d="M228,126c0,0-0.25-7.25,11-6s9,7,9,7l-10-1H228z"/>
	<path fill-rule="evenodd" clip-rule="evenodd" fill="#FFFFFF" d="M229,161c0-2.143,4.571-2.857,5-2s1.429,2.286,0,3
		S229,163.143,229,161z"/>
	<path fill-rule="evenodd" clip-rule="evenodd" fill="#FFFFFF" d="M219.945,161.85c-0.756,2.042-5.48,1.066-5.598,0.095
		s-0.592-2.695,1.058-2.858S220.701,159.809,219.945,161.85z"/>
</g>
<g id="Shape_4_1_" enable-background="new    ">
	<path fill-rule="evenodd" clip-rule="evenodd" fill="#FFFFFF" d="M195,187c-0.166-2.167,5.334-2.667,10-5s10.334-5.167,12-5
		s4.334,1,6,2s4.166,1,5,0s3.666-1,7,1s7.834,3.5,7,5s-1.5,2.667-3,2s-5.166-3-9-3s-10.334-0.667-14,0s-6.666,3.333-9,3
		S195.166,189.167,195,187z"/>
	<path fill-rule="evenodd" clip-rule="evenodd" fill="#FFFFFF" d="M222.629,192c5.867,0.174,4.886,2,2.513,3.2
		c-2.374,1.2-4.887,0.934-6.702,0C216.625,194.267,215.23,191.781,222.629,192z"/>
</g>
<g id="Ellipse_2_1_" enable-background="new    ">
	<path fill-rule="evenodd" clip-rule="evenodd" fill="#FFFFFF" d="M188.884,101.858c9.932,0.852,16.795,6.335,16.933,7
		c-0.081,2.428-7.24,1.108-17.179,1.268c-10.127,1.486-18.76,3.829-18.958,1.224C169.308,110.409,178.888,102.548,188.884,101.858
		L188.884,101.858z"/>
	<path fill-rule="evenodd" clip-rule="evenodd" fill="#FFFFFF" d="M239.826,101c4.498,0.03,8.18,2.418,8.174,5.5
		c0.027,4.012-3.73,2.468-8.265,1.281c-4.048,0.251-9.639,3.58-9.89-0.156C230.336,104.5,235.732,100.709,239.826,101z"/>
</g>
</svg>
